<svg width="126" height="129" viewBox="0 0 126 129" fill="none" xmlns="http://www.w3.org/2000/svg">
<g id="Mask Group 2">
<path id="Ellipse 652" d="M63 126C97.7939 126 126 97.7939 126 63C126 28.2061 97.7939 0 63 0C28.2061 0 0 28.2061 0 63C0 97.7939 28.2061 126 63 126Z" fill="#444444" fill-opacity="0.1"/>
<g id="Group" filter="url(#filter0_d_2287_137162)">
<g id="Mask Group">
<mask id="mask0_2287_137162" style="mask-type:alpha" maskUnits="userSpaceOnUse" x="0" y="0" width="126" height="126">
<path id="Ellipse 653" d="M63 126C97.7939 126 126 97.7939 126 63C126 28.2061 97.7939 0 63 0C28.2061 0 0 28.2061 0 63C0 97.7939 28.2061 126 63 126Z" fill="url(#paint0_linear_2287_137162)"/>
</mask>
<g mask="url(#mask0_2287_137162)">
<path id="Rectangle 5615" d="M99.1199 36.12H26.8799C24.5603 36.12 22.6799 38.0004 22.6799 40.32V128.52C22.6799 130.84 24.5603 132.72 26.8799 132.72H99.1199C101.44 132.72 103.32 130.84 103.32 128.52V40.32C103.32 38.0004 101.44 36.12 99.1199 36.12Z" fill="white"/>
</g>
</g>
</g>
<g id="Group 26781">
<path id="Ellipse 654" d="M44.5199 26.88C46.3756 26.88 47.8799 25.3757 47.8799 23.52C47.8799 21.6644 46.3756 20.16 44.5199 20.16C42.6642 20.16 41.1599 21.6644 41.1599 23.52C41.1599 25.3757 42.6642 26.88 44.5199 26.88Z" fill="white"/>
<path id="Ellipse 655" d="M62.9996 26.8799C64.8553 26.8799 66.3596 25.3756 66.3596 23.5199C66.3596 21.6642 64.8553 20.1599 62.9996 20.1599C61.144 20.1599 59.6396 21.6642 59.6396 23.5199C59.6396 25.3756 61.144 26.8799 62.9996 26.8799Z" fill="white"/>
<path id="Ellipse 656" d="M81.4799 26.8799C83.3355 26.8799 84.8399 25.3756 84.8399 23.5199C84.8399 21.6642 83.3355 20.1599 81.4799 20.1599C79.6242 20.1599 78.1199 21.6642 78.1199 23.5199C78.1199 25.3756 79.6242 26.8799 81.4799 26.8799Z" fill="white"/>
</g>
<path id="Ellipse 665" d="M63.8345 82.9599C74.6151 82.9599 83.3545 74.2205 83.3545 63.4399C83.3545 52.6593 74.6151 43.9199 63.8345 43.9199C53.0539 43.9199 44.3145 52.6593 44.3145 63.4399C44.3145 74.2205 53.0539 82.9599 63.8345 82.9599Z" fill="#444444" fill-opacity="0.2"/>
<g id="ic_add_48px">
<path id="Path 25936" d="M70.7353 72.6419L63.834 65.7405L56.9326 72.6419L54.6322 70.3415L61.5335 63.4401L54.6322 56.5387L56.9326 54.2383L63.834 61.1396L70.7353 54.2383L73.0358 56.5387L66.1344 63.4401L73.0358 70.3415L70.7353 72.6419Z" fill="white"/>
</g>
<path id="Rectangle 5621" d="M74.4075 87.8398H53.2608C51.9132 87.8398 50.8208 88.9323 50.8208 90.2798C50.8208 91.6274 51.9132 92.7198 53.2608 92.7198H74.4075C75.755 92.7198 76.8475 91.6274 76.8475 90.2798C76.8475 88.9323 75.755 87.8398 74.4075 87.8398Z" fill="#444444" fill-opacity="0.1"/>
<path id="Rectangle 5622" d="M81.7267 97.5996H45.94C44.5924 97.5996 43.5 98.692 43.5 100.04C43.5 101.387 44.5924 102.48 45.94 102.48H81.7267C83.0742 102.48 84.1667 101.387 84.1667 100.04C84.1667 98.692 83.0742 97.5996 81.7267 97.5996Z" fill="#444444" fill-opacity="0.1"/>
</g>
<defs>
<filter id="filter0_d_2287_137162" x="17.6399" y="28.56" width="90.7199" height="99.96" filterUnits="userSpaceOnUse" color-interpolation-filters="sRGB">
<feFlood flood-opacity="0" result="BackgroundImageFix"/>
<feColorMatrix in="SourceAlpha" type="matrix" values="0 0 0 0 0 0 0 0 0 0 0 0 0 0 0 0 0 0 127 0" result="hardAlpha"/>
<feOffset dy="-2.52"/>
<feGaussianBlur stdDeviation="2.52"/>
<feColorMatrix type="matrix" values="0 0 0 0 0.788235 0 0 0 0 0.803922 0 0 0 0 0.85098 0 0 0 0.349 0"/>
<feBlend mode="normal" in2="BackgroundImageFix" result="effect1_dropShadow_2287_137162"/>
<feBlend mode="normal" in="SourceGraphic" in2="effect1_dropShadow_2287_137162" result="shape"/>
</filter>
<linearGradient id="paint0_linear_2287_137162" x1="63" y1="0" x2="63" y2="126" gradientUnits="userSpaceOnUse">
<stop stop-color="#EEF0F4"/>
<stop offset="1" stop-color="#E4E4E4"/>
</linearGradient>
</defs>
</svg>
